HIERARCHY
ROOT pelvis
{
  OFFSET 0 100 0
  CHANNELS 6 Xposition Yposition Zposition Zrotation Xrotation Yrotation
  JOINT pelvis_right_femur
  {
    OFFSET -10.78128 -3.44521 -0.5502486
    CHANNELS 3 Zrotation Xrotation Yrotation
    JOINT right_femur_tibia
    {
      OFFSET -0.8047443 -44.0398 -0.1307829
      CHANNELS 3 Zrotation Xrotation Yrotation
      JOINT right_tibia_foot
      {
        OFFSET 3.006224 -47.83518 -5
        CHANNELS 3 Zrotation Xrotation Yrotation
        End Site
        {
          OFFSET 0 -5 15
        }
      }
    }
  }
  JOINT pelvis_left_femur
  {
    OFFSET 10.78128 -3.44521 -0.5502486
    CHANNELS 3 Zrotation Xrotation Yrotation
    JOINT left_femur_tibia
    {
      OFFSET 0.8047443 -44.0398 -0.1307829
      CHANNELS 3 Zrotation Xrotation Yrotation
      JOINT left_tibia_foot
      {
        OFFSET -4.370144 -48.10324 -4.275266
        CHANNELS 3 Zrotation Xrotation Yrotation
        End Site
        {
          OFFSET 0 -5 15
        }
      }
    }
  }
  JOINT pelvis_spine1
  {
    OFFSET 0 6.468898 -3.129235
    CHANNELS 3 Zrotation Xrotation Yrotation
    JOINT spine1
    {
      OFFSET 0 23.15396 4.99043
      CHANNELS 3 Zrotation Xrotation Yrotation
      JOINT spine2
      {
        OFFSET 0 20.79997 -5.064912
        CHANNELS 3 Zrotation Xrotation Yrotation
        JOINT neck
        {
          OFFSET 0 14.38658 9.616178
          CHANNELS 3 Zrotation Xrotation Yrotation
          End Site
          {
            OFFSET 0 20 0
          }
        }
      }
      JOINT right_manubrium
      {
        OFFSET -5.722621 16.35077 3.967754
        CHANNELS 3 Zrotation Xrotation Yrotation
        JOINT right_clavicle
        {
          OFFSET -13.16364 1.694482 -4.693211
          CHANNELS 3 Zrotation Xrotation Yrotation
          JOINT right_humerus
          {
            OFFSET -28.5034 -0.3100689 -2.792744
            CHANNELS 3 Zrotation Xrotation Yrotation
            JOINT right_radius
            {
              OFFSET -25.15693 0.02248979 -1.271978
              CHANNELS 3 Zrotation Xrotation Yrotation
              End Site
              {
                OFFSET -15 0 0
              }
            }
          }
        }
      }
      JOINT left_manubrium
      {
        OFFSET 5.722621 16.35077 3.967754
        CHANNELS 3 Zrotation Xrotation Yrotation
        JOINT left_clavicle
        {
          OFFSET 13.16364 1.694482 -4.693211
          CHANNELS 3 Zrotation Xrotation Yrotation
          JOINT left_humerus
          {
            OFFSET 29.39168 -1.063119 -2.237045
            CHANNELS 3 Zrotation Xrotation Yrotation
            JOINT left_radius
            {
              OFFSET 24.59957 -0.9528479 0.9047498
              CHANNELS 3 Zrotation Xrotation Yrotation
              End Site
              {
                OFFSET 15 -0 -0
              }
            }
          }
        }
      }
    }
  }
}
MOTION
Frames: 13
Frame Time: 0.0416666666667
35.91519 100.9176 274.1721 -0.7208627 -0.9546915 0.1077396 2.89635 11.50451 8.860144 -0 33.44286 -0 7.055562 -11.07793 -1.506179 1.54569 -31.16253 -4.937557 -0 25.77101 -0 -6.355588 -7.773401 16.88704 0.9794715 -5.984655 10.2213 -1.654426 10.57644 -3.214602 2.272337 19.41074 5.430043 2.806041 -17.79015 6.373333 -0.3371198 -21.48471 10.7085 81.22442 17.2385 -6.166416 -0 0 28.62556 -25.54574 9.788383 13.88637 4.336276 -12.71463 -3.502018 -92.67185 21.21724 25.07194 0 0 -5.375761 -4.813297 4.465948 14.85573
37.2831 101.5971 281.9709 -0.6799124 -0.9064854 0.5990836 1.76493 8.833883 7.837944 -0 42.00523 -0 6.933828 -10.35451 -2.76666 -0.058091 -27.84922 -6.187338 -0 27.61302 -0 -6.283201 -8.553628 16.34087 0.7610841 -7.106851 10.03735 -1.672895 10.61978 -3.058306 2.35249 19.9007 5.352227 2.726574 -17.5808 6.483472 0.4253994 -20.22813 10.49652 82.05035 17.10892 -7.52105 -0 0 26.90401 -25.15809 9.702468 13.29748 4.220093 -12.89765 -3.422767 -91.73876 21.75043 23.90094 0 0 -5.359268 -4.848919 4.4061 14.99673
38.95885 102.5877 289.3808 -0.6164082 -0.8330708 1.353037 2.203982 3.861898 6.884382 -0 50.64696 -0 6.614499 -9.297652 -3.931623 -1.178991 -24.26954 -7.358806 -0 28.43116 -0 -5.952604 -10.26087 15.64577 0.8404823 -7.974476 9.248692 -1.779378 10.59403 -3.226515 2.339149 20.41156 5.375554 2.57261 -17.39224 6.675067 1.16802 -19.13357 10.40594 82.85557 17.22423 -8.923933 -0 0 24.65337 -24.54884 9.718321 12.49555 3.864343 -13.46926 -3.559761 -90.4386 22.31999 21.81098 0 0 -5.942315 -4.761492 4.377696 14.94231
40.28758 103.9174 295.9371 -0.5233054 -0.7192606 2.497858 2.63403 -3.30194 6.328799 -0 56.0058 -0 6.280884 -8.932218 -4.985727 -2.313268 -19.66314 -7.710814 -0 26.91942 -0 -5.648202 -12.10457 15.07161 0.6180452 -8.304989 8.032261 -1.730484 10.45529 -3.731708 2.210994 20.97845 5.468875 2.334945 -17.08193 6.885155 1.907695 -18.29659 10.3607 83.90291 17.54128 -10.23742 -0 0 22.32024 -23.76433 9.804757 11.61983 3.735826 -14.39296 -3.874749 -88.70898 22.87878 18.82574 0 0 -7.223441 -4.430137 4.426579 14.65136
41.47193 105.2469 301.9382 -0.4583418 -0.634528 3.318305 2.560457 -8.869909 5.334443 -0 57.2519 -0 6.691483 -7.497933 -6.344352 -2.742448 -14.64072 -7.88585 -0 24.64547 -0 -5.438778 -13.51392 14.1807 0.5220825 -8.171746 6.797963 -1.541152 10.22963 -4.349337 1.937735 21.56248 5.665027 2.016149 -16.62524 7.110687 2.287232 -17.47883 10.29502 84.93499 17.8883 -11.60426 -0 0 20.18769 -22.93589 9.866561 10.71733 3.932201 -15.47073 -4.203034 -86.76416 23.31774 15.27498 0 0 -9.18143 -3.925686 4.55069 14.11135
42.65034 106.5009 307.9487 -0.3488151 -0.4912337 4.714672 2.798526 -15.90872 4.921316 -0 53.82787 -0 6.063872 -7.29934 -7.310451 -3.012511 -9.343172 -8.429025 -0 22.41275 -0 -5.218566 -14.53333 12.97001 0.1714697 -7.944466 5.444228 -1.325231 10.14406 -5.349648 1.914738 22.2814 5.673507 1.832772 -16.08157 7.304279 2.302822 -16.5912 9.80661 86.05031 18.11827 -13.17159 -0 0 18.24847 -22.06918 9.816658 9.775729 4.199476 -16.43011 -4.358429 -84.82498 23.57973 11.67596 0 0 -11.51697 -3.267799 4.739473 13.31032
43.73152 106.8982 314.074 -0.1794005 -0.2608093 6.93933 2.601397 -21.43124 4.732288 -0 47.158 -0 5.142065 -6.873759 -8.296831 -3.310816 -4.410458 -8.713197 -0 20.20708 -0 -4.957484 -15.78437 11.88129 -0.2046247 -8.243708 4.266647 -1.121234 9.591657 -6.372751 2.101029 22.51084 5.681157 1.74598 -15.91853 7.665129 1.936052 -15.23538 9.112497 87.20446 18.18674 -15.09537 -0 0 16.29054 -21.18072 9.644553 8.732949 4.548494 -17.44802 -4.407898 -82.92243 23.70029 7.899173 0 0 -14.23727 -2.512463 5.023109 12.28391
44.80139 106.3443 319.5948 -0.05309112 -0.07901332 8.666741 2.052344 -25.86291 4.866963 -0 38.58757 -0 3.997269 -6.448546 -9.220985 -3.42223 -0.3320649 -8.811076 -0 18.73831 -0 -4.572334 -17.36682 11.02689 -0.4570941 -7.783456 3.260498 -0.8006258 9.169742 -7.16978 2.311414 22.61888 5.595572 1.681811 -15.79886 7.909371 1.43641 -14.13219 8.687222 88.1336 18.18462 -16.64948 -0 0 14.46123 -20.25301 9.365704 7.556282 5.03996 -18.56299 -4.634726 -81.06519 23.68887 3.808976 0 0 -17.36853 -1.657965 5.422922 11.06273
45.90539 105.1389 325.6938 0.05358958 0.08140343 10.17634 1.428395 -30.12237 4.823653 -0 29.27502 -0 2.592586 -6.679473 -10.47102 -3.51745 3.489593 -8.619507 -0 18.47026 -0 -4.143997 -18.99263 10.45619 -0.6276787 -7.504199 2.451569 -0.4839073 8.781089 -7.810503 2.535384 22.54555 5.415204 1.627396 -15.9209 8.034105 0.8774403 -13.0391 8.358226 88.77387 18.18199 -18.07596 -0 0 12.51715 -19.33236 9.078298 6.335422 5.567582 -19.47251 -4.785261 -79.39558 23.56641 0.1634179 0 0 -20.43615 -0.6971366 5.928546 9.718758
46.56819 103.8188 331.8184 0.09451541 0.1441216 10.76598 1.15782 -34.06494 4.405136 -0 23.07048 -0 1.059852 -7.520791 -11.0376 -3.343332 6.472194 -8.207838 -0 19.69525 -0 -3.748985 -20.07979 10.2802 -0.8855208 -7.114073 2.350147 -0.118376 8.540744 -7.825951 2.709967 22.51347 5.17793 1.559992 -16.18451 8.041715 0.8758086 -12.03863 8.23802 89.36276 18.17983 -19.29928 -0 0 10.26747 -18.34142 8.810123 4.90044 5.916364 -20.43403 -4.586783 -77.92557 23.3365 -2.798058 0 0 -23.02569 0.3146132 6.453964 8.392867
47.27673 102.5599 338.0832 0.09057811 0.1370789 10.70437 1.621309 -35.69731 4.251766 -0 19.05161 -0 -0.4713955 -8.694131 -11.05658 -3.209455 8.810219 -7.468845 -0 22.82634 -0 -3.500794 -20.01855 10.46831 -0.8437541 -6.542652 2.378674 0.1795682 8.333021 -7.56861 2.727751 22.38592 4.993751 1.414746 -16.54802 7.976431 1.030894 -11.43106 8.440174 89.68323 18.24039 -19.89826 -0 0 8.230855 -17.32456 8.570098 3.462575 6.061061 -21.11489 -4.408434 -76.93897 23.09846 -4.79484 0 0 -24.81591 1.290684 6.95336 7.230459
48.01039 101.8818 345.1488 0.1002199 0.1512401 10.84024 3.045397 -34.55727 4.645249 -0 19.56202 -0 -1.886523 -8.910759 -11.18468 -3.274338 10.58267 -6.392749 -0 28.60988 -0 -3.461308 -18.21795 11.16264 -0.6063046 -6.64141 2.287007 0.2273053 8.588831 -7.264951 2.627278 22.66169 4.779277 1.237764 -16.66198 7.762107 1.268041 -10.66508 8.394316 90.14182 18.22703 -20.31944 -0 0 6.485661 -16.29717 8.359128 2.086192 5.858188 -21.27452 -3.845988 -76.74859 23.00463 -5.437837 0 0 -25.47741 2.099224 7.398758 6.394414
48.78162 101.301 352.5881 0.1304259 0.1976715 11.27738 4.442345 -32.47991 5.746074 -0 22.1776 -0 -3.120292 -8.542083 -11.12234 -3.124698 10.90324 -5.758776 -0 35.2954 -0 -3.621328 -15.48004 12.2519 -0.423463 -7.649078 1.962308 0.2139928 8.477713 -7.301072 2.598174 22.76415 4.716216 1.101654 -16.97137 7.794602 1.202919 -10.08608 8.146622 90.54416 18.16193 -20.47032 -0 0 5.257498 -15.32724 8.157154 0.8868995 5.505748 -20.67224 -3.550939 -77.30382 23.13496 -4.802125 0 0 -24.77616 2.62548 7.757443 6.000004
